<svg xmlns="http://www.w3.org/2000/svg" width="404.757" height="98.967" viewBox="0 0 404.757 98.967">
  <g id="Group_15590" data-name="Group 15590" transform="translate(-607.272 -557.547)">
    <g id="Group_15589" data-name="Group 15589" transform="translate(727.709 557.547)">
      <g id="Group_15588" data-name="Group 15588" transform="translate(1.712)">
        <path id="Path_62018" data-name="Path 62018" d="M1010.677,560.347h-.007a2.729,2.729,0,0,0-4.726-1.931l0-.006-7.7,9.256,2.764,9.595,8.692-4.914Z" transform="translate(-952.12 -557.547)" fill="#a3d09d"/>
        <path id="Path_62019" data-name="Path 62019" d="M1032.916,585.529l-.006,0a2.73,2.73,0,0,0-1.976-4.708v-.007l-11.991,1.1-4.83,8.738,9.621,2.671Z" transform="translate(-953.042 -558.897)" fill="#3b7d98"/>
        <path id="Path_62020" data-name="Path 62020" d="M1031.145,618.945v-.007a2.73,2.73,0,0,0,1.931-4.727l0,0-9.255-7.7-9.595,2.764,4.914,8.692Z" transform="translate(-953.049 -560.389)" fill="#25afa5"/>
        <path id="Path_62021" data-name="Path 62021" d="M1006.468,641.184l0,0a2.729,2.729,0,0,0,4.707-1.976h.008l-1.1-11.991-8.738-4.83-1.678,10.791Z" transform="translate(-952.204 -561.311)" fill="#126c66"/>
        <path id="Path_62022" data-name="Path 62022" d="M977.567,641.184l0,0a2.73,2.73,0,0,1-4.708-1.976h-.007l1.1-11.991,8.738-4.83,1.679,10.791Z" transform="translate(-950.646 -561.311)" fill="#25afa5"/>
        <path id="Path_62023" data-name="Path 62023" d="M950.312,614.676l0,0a2.73,2.73,0,0,0,1.976,4.708v.008l11.991-1.1,4.83-8.738-9.621-2.672Z" transform="translate(-949.288 -560.411)" fill="#a3d09d"/>
        <path id="Path_62024" data-name="Path 62024" d="M952.078,581.263v.008A2.729,2.729,0,0,0,950.147,586l0,0,9.255,7.7,9.595-2.764-4.913-8.691Z" transform="translate(-949.278 -558.923)" fill="#00b1c2"/>
        <path id="Path_62025" data-name="Path 62025" d="M977.26,558.58l0,.006a2.729,2.729,0,0,0-4.707,1.976h-.008l1.1,11.99,8.738,4.83,2.671-9.62Z" transform="translate(-950.628 -557.557)" fill="#25afa5"/>
      </g>
      <path id="Path_62026" data-name="Path 62026" d="M1017.94,573.4a.682.682,0,0,0-.863-.077l-16.671,9.78-2.8,4.9c.3.142.609.277.9.443l3.752-2.546a1.029,1.029,0,0,1,1.364.08l1.742,1.743a1.028,1.028,0,0,1,.081,1.364l-2.546,3.752c.165.285.3.591.44.89l4.9-2.8,0,0,9.778-16.672A.682.682,0,0,0,1017.94,573.4Z" transform="translate(-950.372 -558.456)" fill="#404040"/>
      <path id="Path_62027" data-name="Path 62027" d="M947.521,641.581a.69.69,0,0,1,.74-.415L984.817,653.8l1.177,7.569-11.626-5.556-26.661-13.428A.671.671,0,0,1,947.521,641.581Z" transform="translate(-947.46 -562.401)" fill="#404040"/>
      <path id="Path_62028" data-name="Path 62028" d="M1034.541,641.581a.69.69,0,0,0-.74-.415L997.245,653.8l-1.177,7.569,11.626-5.556,26.661-13.428A.67.67,0,0,0,1034.541,641.581Z" transform="translate(-950.283 -562.401)" fill="#404040"/>
      <path id="Path_62029" data-name="Path 62029" d="M1028.29,599.386l-18.7-4.872L1004.138,596c.113.313.235.622.322.947l4.451.852a1.029,1.029,0,0,1,.908,1.021v2.463a1.029,1.029,0,0,1-.908,1.022l-4.451.851c-.087.323-.208.63-.32.941l5.446,1.485v.007l18.7-4.875a.676.676,0,0,0,0-1.33Z" transform="translate(-950.751 -559.693)" fill="#404040"/>
      <path id="Path_62030" data-name="Path 62030" d="M1018.02,625.252l-9.78-16.669-4.9-2.8c-.142.3-.277.609-.443.9l2.546,3.752a1.029,1.029,0,0,1-.081,1.365l-1.742,1.742a1.028,1.028,0,0,1-1.364.08l-3.752-2.546c-.286.165-.591.3-.89.44l2.8,4.9,0,0,16.671,9.778a.676.676,0,0,0,.941-.94Z" transform="translate(-950.372 -560.347)" fill="#404040"/>
      <path id="Path_62031" data-name="Path 62031" d="M994.983,612.635l-.852,4.451a1.029,1.029,0,0,1-1.021.908h-2.463a1.029,1.029,0,0,1-1.022-.908l-.852-4.451c-.322-.087-.629-.208-.94-.321l-1.486,5.447h-.006l4.873,41.376a.676.676,0,0,0,1.331,0l4.872-41.376-1.486-5.449C995.617,612.425,995.307,612.547,994.983,612.635Z" transform="translate(-949.718 -560.726)" fill="#404040"/>
      <path id="Path_62032" data-name="Path 62032" d="M984.672,611.067l-3.752,2.546a1.029,1.029,0,0,1-1.364-.08l-1.742-1.742a1.028,1.028,0,0,1-.08-1.365l2.546-3.752c-.165-.285-.3-.59-.44-.89l-4.9,2.8-.006,0-9.778,16.671a.676.676,0,0,0,.941.94l16.669-9.78,2.8-4.9C985.266,611.368,984.96,611.233,984.672,611.067Z" transform="translate(-948.481 -560.347)" fill="#404040"/>
      <path id="Path_62033" data-name="Path 62033" d="M978.455,603.157,974,602.306a1.029,1.029,0,0,1-.908-1.022v-2.463A1.029,1.029,0,0,1,974,597.8l4.451-.852c.087-.323.208-.629.32-.941l-5.446-1.485v-.007l-18.7,4.875a.676.676,0,0,0,0,1.33l18.7,4.872,5.448-1.485C978.664,603.791,978.543,603.482,978.455,603.157Z" transform="translate(-947.844 -559.693)" fill="#404040"/>
      <path id="Path_62034" data-name="Path 62034" d="M979.838,593.743c.142-.3.276-.609.443-.9l-2.546-3.752a1.027,1.027,0,0,1,.08-1.364l1.742-1.743a1.029,1.029,0,0,1,1.364-.08l3.752,2.546c.286-.165.591-.3.89-.44l-2.8-4.9,0,0-16.671-9.778a.675.675,0,0,0-.94.94l9.779,16.67Z" transform="translate(-948.481 -558.456)" fill="#404040"/>
      <path id="Path_62035" data-name="Path 62035" d="M988.772,586.63l.852-4.451a1.029,1.029,0,0,1,1.022-.908h2.463a1.029,1.029,0,0,1,1.021.908l.852,4.451c.322.087.629.208.941.32l1.485-5.447h.007l-4.875-18.7a.676.676,0,0,0-1.33,0l-4.872,18.7,1.485,5.449C988.139,586.839,988.448,586.716,988.772,586.63Z" transform="translate(-949.718 -557.819)" fill="#404040"/>
    </g>
  </g>
</svg>
